<svg xmlns="http://www.w3.org/2000/svg" height="100mm" width="100mm" viewBox="0 0 100 100"><path fill="#ff0" d="M35.011 87.001V61.87C35.45 63.074 46.62 66.731 50 67.815v19.18zm0-25.132a.163.163 0 0 1 0-.125z"/><path stroke-linejoin="round" d="M50 93.101c-23.805 0-43.1-19.3-43.1-43.1s19.295-43.1 43.1-43.1" stroke="#ff0" stroke-miterlimit="25" stroke-width="13.799" fill="none"/><path d="M35.011 13.343v25.131C35.45 37.27 46.62 33.614 50 32.53V13.34zm0 25.131a.163.163 0 0 0 0 .126z" fill="#ff0"/><path stroke-linejoin="round" d="M50 66.861c-9.313 0-16.863-7.549-16.863-16.862 0-9.312 7.55-16.862 16.862-16.862" stroke="gray" stroke-miterlimit="25" stroke-width="6.276" fill="none"/><path opacity=".3" fill="#ffa100" d="M50 0c27.614 0 50 22.386 50 50s-22.386 50-50 50"/></svg>